<svg width="23" height="25" viewBox="0 0 23 25" fill="none" xmlns="http://www.w3.org/2000/svg">
<path d="M9.84279 0.5C9.10709 0.50011 8.37294 0.567286 7.64945 0.700695C7.62186 0.705819 7.61 0.715618 7.6032 0.722946C7.59407 0.732767 7.58494 0.749044 7.58131 0.77072C7.57767 0.792419 7.58096 0.811079 7.58652 0.82371C7.59074 0.833286 7.59885 0.846313 7.62267 0.859871L7.37538 1.29443L7.62268 0.859874C10.8468 2.69467 12.8313 6.10325 12.8313 9.80977C12.8313 16.2443 6.9777 21.1317 0.603916 19.9178C0.577272 19.9128 0.562588 19.9173 0.55294 19.922C0.540319 19.9281 0.525642 19.9402 0.514343 19.959C0.503067 19.9778 0.499508 19.9959 0.500065 20.0091C0.500479 20.0189 0.503069 20.0342 0.521112 20.0564L0.132898 20.3715L0.521122 20.0564C2.76141 22.8166 6.14145 24.5 9.84271 24.5C16.475 24.5 21.8427 19.1239 21.8427 12.5C21.8427 5.86773 16.4667 0.5 9.84279 0.5ZM9.84279 0.5L9.84271 0L9.84279 0.5Z" fill="#909090" stroke="black"/>
</svg>
