<svg width="25" height="17" viewBox="0 0 25 17" fill="none" xmlns="http://www.w3.org/2000/svg">
<path d="M14.1715 13.5554L13.4254 14.3889H14.5441H16.6667C20.0136 14.3889 22.7222 11.6798 22.7222 8.33333C22.7222 4.98638 20.0131 2.27778 16.6667 2.27778H14.5441H13.4254L14.1715 3.11125C16.833 6.08457 16.8322 10.583 14.1715 13.5554ZM8.33333 0.5H16.6667C20.9929 0.5 24.5 4.00709 24.5 8.33333C24.5 12.6596 20.9929 16.1667 16.6667 16.1667H8.33333C4.00709 16.1667 0.5 12.6596 0.5 8.33333C0.5 4.00709 4.00709 0.5 8.33333 0.5ZM8.33333 2.27778C4.98638 2.27778 2.27778 4.98686 2.27778 8.33333C2.27778 11.6803 4.98686 14.3889 8.33333 14.3889C11.6803 14.3889 14.3889 11.6798 14.3889 8.33333C14.3889 4.98638 11.6798 2.27778 8.33333 2.27778Z" fill="#FF0000" stroke="#FF0000"/>
</svg>
